<svg width="139" height="24" viewBox="0 0 139 24" fill="none" xmlns="http://www.w3.org/2000/svg"><path d="M14.52 1.192V19h-2.88v-1.656a4.624 4.624 0 0 1-1.848 1.368c-.72.304-1.52.456-2.4.456-1.232 0-2.344-.272-3.336-.816a5.907 5.907 0 0 1-2.304-2.304c-.56-1.008-.84-2.16-.84-3.456 0-1.296.28-2.44.84-3.432a5.907 5.907 0 0 1 2.304-2.304c.992-.544 2.104-.816 3.336-.816.848 0 1.624.144 2.328.432.704.288 1.304.72 1.8 1.296V1.192h3zM7.752 16.6c.72 0 1.368-.16 1.944-.48a3.64 3.64 0 0 0 1.368-1.416c.336-.608.504-1.312.504-2.112s-.168-1.504-.504-2.112a3.473 3.473 0 0 0-1.368-1.392c-.576-.336-1.224-.504-1.944-.504s-1.368.168-1.944.504A3.473 3.473 0 0 0 4.44 10.48c-.336.608-.504 1.312-.504 2.112s.168 1.504.504 2.112a3.64 3.64 0 0 0 1.368 1.416c.576.32 1.224.48 1.944.48zM18.445 6.184h3V19h-3V6.184zm1.512-2.112c-.544 0-1-.168-1.368-.504a1.724 1.724 0 0 1-.552-1.296c0-.512.184-.936.552-1.272.368-.352.824-.528 1.368-.528.544 0 1 .168 1.368.504.368.32.552.728.552 1.224 0 .528-.184.976-.552 1.344-.352.352-.808.528-1.368.528zm18.145 2.112v10.872c0 4.512-2.304 6.768-6.912 6.768-1.232 0-2.4-.16-3.504-.48-1.104-.304-2.016-.752-2.736-1.344l1.344-2.256c.56.464 1.264.832 2.112 1.104a8.225 8.225 0 0 0 2.616.432c1.408 0 2.44-.32 3.096-.96.656-.64.984-1.616.984-2.928v-.672a4.932 4.932 0 0 1-1.872 1.272c-.736.288-1.544.432-2.424.432-1.216 0-2.32-.256-3.312-.768a6.055 6.055 0 0 1-2.328-2.208c-.56-.944-.84-2.024-.84-3.24 0-1.216.28-2.288.84-3.216a5.88 5.88 0 0 1 2.328-2.184c.992-.512 2.096-.768 3.312-.768.928 0 1.768.152 2.52.456a4.656 4.656 0 0 1 1.92 1.392V6.184h2.856zm-6.84 9.696c1.136 0 2.064-.336 2.784-1.008.736-.688 1.104-1.576 1.104-2.664 0-1.072-.368-1.944-1.104-2.616-.72-.672-1.648-1.008-2.784-1.008-1.152 0-2.096.336-2.832 1.008-.72.672-1.08 1.544-1.08 2.616 0 1.088.36 1.976 1.08 2.664.736.672 1.68 1.008 2.832 1.008zm10.784-9.696h3V19h-3V6.184zm1.512-2.112c-.544 0-1-.168-1.368-.504a1.724 1.724 0 0 1-.552-1.296c0-.512.184-.936.552-1.272.368-.352.824-.528 1.368-.528.544 0 1 .168 1.368.504.368.32.552.728.552 1.224 0 .528-.184.976-.552 1.344-.352.352-.808.528-1.368.528zm13.13 14.232a3.525 3.525 0 0 1-1.296.648 5.656 5.656 0 0 1-1.584.216c-1.408 0-2.496-.368-3.264-1.104-.768-.736-1.152-1.808-1.152-3.216V8.68H47.28v-2.4h2.112V3.352h3V6.28h3.432v2.4h-3.432v6.096c0 .624.152 1.104.456 1.44.304.32.744.48 1.32.48.672 0 1.232-.176 1.68-.528l.84 2.136zM64.052 6.04c1.887 0 3.327.456 4.32 1.368 1.007.896 1.511 2.256 1.511 4.08V19h-2.831v-1.56c-.369.56-.897.992-1.585 1.296-.671.288-1.487.432-2.447.432s-1.8-.16-2.52-.48c-.72-.336-1.28-.792-1.68-1.368a3.582 3.582 0 0 1-.577-1.992c0-1.152.424-2.072 1.273-2.76.864-.704 2.215-1.056 4.056-1.056h3.311v-.192c0-.896-.271-1.584-.816-2.064-.527-.48-1.32-.72-2.375-.72-.72 0-1.432.112-2.136.336-.688.224-1.273.536-1.752.936l-1.177-2.184c.672-.512 1.48-.904 2.424-1.176a10.785 10.785 0 0 1 3-.408zm-.409 10.944c.752 0 1.416-.168 1.992-.504a2.85 2.85 0 0 0 1.248-1.488v-1.488h-3.095c-1.728 0-2.592.568-2.592 1.704 0 .544.215.976.648 1.296.431.32 1.032.48 1.8.48zm10.09-15.792h3V19h-3V1.192zm18.779 2.256c-1.264 0-1.896.688-1.896 2.064v.768h3.528v2.4h-3.432V19h-3V8.68H85.6v-2.4h2.112v-.816c0-1.376.4-2.456 1.2-3.24.8-.8 1.928-1.2 3.384-1.2 1.152 0 2.056.232 2.712.696l-.84 2.256a2.867 2.867 0 0 0-1.656-.528zm3.648-2.256h3V19h-3V1.192zm12.701 17.976c-1.296 0-2.464-.28-3.504-.84A6.235 6.235 0 0 1 102.909 16c-.576-1.008-.864-2.144-.864-3.408 0-1.264.288-2.392.864-3.384a6.235 6.235 0 0 1 2.448-2.328c1.04-.56 2.208-.84 3.504-.84 1.312 0 2.488.28 3.528.84a6.067 6.067 0 0 1 2.424 2.328c.592.992.888 2.12.888 3.384 0 1.264-.296 2.4-.888 3.408a6.067 6.067 0 0 1-2.424 2.328c-1.04.56-2.216.84-3.528.84zm0-2.568c1.104 0 2.016-.368 2.736-1.104.72-.736 1.08-1.704 1.08-2.904s-.36-2.168-1.08-2.904c-.72-.736-1.632-1.104-2.736-1.104-1.104 0-2.016.368-2.736 1.104-.704.736-1.056 1.704-1.056 2.904s.352 2.168 1.056 2.904c.72.736 1.632 1.104 2.736 1.104zM138.21 6.184L133.482 19h-2.88l-3.312-8.832L123.93 19h-2.88l-4.704-12.816h2.832l3.384 9.456 3.528-9.456h2.52l3.456 9.504 3.48-9.504h2.664z" fill="#fff"/></svg>